<svg width="32" height="32" viewBox="0 0 32 32" fill="none" xmlns="http://www.w3.org/2000/svg">
<path d="M16 17.3333C18.2091 17.3333 20 15.5424 20 13.3333C20 11.1241 18.2091 9.33325 16 9.33325C13.7909 9.33325 12 11.1241 12 13.3333C12 15.5424 13.7909 17.3333 16 17.3333Z" stroke="white" stroke-width="2" stroke-linecap="round" stroke-linejoin="round"/>
<path d="M15.9997 2.66663C13.1707 2.66663 10.4576 3.79043 8.4572 5.79082C6.45681 7.79121 5.33301 10.5043 5.33301 13.3333C5.33301 15.856 5.86901 17.5066 7.33301 19.3333L15.9997 29.3333L24.6663 19.3333C26.1303 17.5066 26.6663 15.856 26.6663 13.3333C26.6663 10.5043 25.5425 7.79121 23.5421 5.79082C21.5418 3.79043 18.8287 2.66663 15.9997 2.66663V2.66663Z" stroke="white" stroke-width="2" stroke-linecap="round" stroke-linejoin="round"/>
</svg>
