<svg width="32" height="32" viewBox="0 0 32 32" fill="none" xmlns="http://www.w3.org/2000/svg">
<path d="M17.3333 10.6667C18.3942 10.6667 19.4116 11.0881 20.1618 11.8382C20.9119 12.5884 21.3333 13.6058 21.3333 14.6667C21.3333 15.0203 21.4738 15.3594 21.7239 15.6095C21.9739 15.8595 22.313 16 22.6667 16C23.0203 16 23.3594 15.8595 23.6095 15.6095C23.8595 15.3594 24 15.0203 24 14.6667C24 12.8986 23.2976 11.2029 22.0474 9.95262C20.7971 8.70238 19.1014 8 17.3333 8C16.9797 8 16.6406 8.14048 16.3905 8.39052C16.1405 8.64057 16 8.97971 16 9.33333C16 9.68696 16.1405 10.0261 16.3905 10.2761C16.6406 10.5262 16.9797 10.6667 17.3333 10.6667Z" fill="white"/>
<path d="M17.3337 5.33329C19.809 5.33329 22.183 6.31662 23.9333 8.06696C25.6837 9.8173 26.667 12.1913 26.667 14.6666C26.667 15.0202 26.8075 15.3594 27.0575 15.6094C27.3076 15.8595 27.6467 16 28.0003 16C28.3539 16 28.6931 15.8595 28.9431 15.6094C29.1932 15.3594 29.3337 15.0202 29.3337 14.6666C29.3337 11.484 28.0694 8.43178 25.8189 6.18134C23.5685 3.93091 20.5163 2.66663 17.3337 2.66663C16.98 2.66663 16.6409 2.8071 16.3909 3.05715C16.1408 3.3072 16.0003 3.64634 16.0003 3.99996C16.0003 4.35358 16.1408 4.69272 16.3909 4.94277C16.6409 5.19282 16.98 5.33329 17.3337 5.33329ZM29.0003 21.2133C28.927 20.9992 28.8004 20.8074 28.6324 20.6558C28.4645 20.5041 28.2607 20.3978 28.0403 20.3466L20.0403 18.52C19.8232 18.4707 19.5972 18.4767 19.3829 18.5372C19.1686 18.5978 18.9729 18.711 18.8137 18.8666C18.627 19.04 18.6137 19.0533 17.747 20.7066C14.8713 19.3815 12.567 17.0678 11.2537 14.1866C12.947 13.3333 12.9603 13.3333 13.1337 13.1333C13.2893 12.974 13.4025 12.7783 13.4631 12.5641C13.5236 12.3498 13.5296 12.1238 13.4803 11.9066L11.6537 3.99996C11.6025 3.77955 11.4961 3.57579 11.3445 3.40784C11.1929 3.2399 11.001 3.1133 10.787 3.03996C10.4756 2.92875 10.1541 2.84836 9.82699 2.79996C9.49 2.72182 9.1461 2.67716 8.80033 2.66663C7.17366 2.66663 5.61363 3.31281 4.4634 4.46304C3.31318 5.61326 2.66699 7.1733 2.66699 8.79996C2.67405 14.2436 4.83964 19.4622 8.68886 23.3114C12.5381 27.1606 17.7567 29.3262 23.2003 29.3333C24.0058 29.3333 24.8033 29.1746 25.5475 28.8664C26.2916 28.5582 26.9677 28.1064 27.5372 27.5369C28.1068 26.9673 28.5586 26.2912 28.8668 25.5471C29.175 24.803 29.3337 24.0054 29.3337 23.2C29.3341 22.8606 29.3073 22.5217 29.2537 22.1866C29.1976 21.8554 29.1129 21.5298 29.0003 21.2133ZM23.2003 26.6666C18.4629 26.6631 13.9205 24.7796 10.5706 21.4297C7.2207 18.0798 5.33719 13.5374 5.33366 8.79996C5.33717 7.88162 5.70354 7.0019 6.3529 6.35254C7.00227 5.70317 7.88199 5.3368 8.80033 5.33329H9.24033L10.667 11.52L9.94699 11.8933C8.80033 12.4933 7.89366 12.9733 8.37366 14.0133C9.15529 16.2261 10.42 18.2369 12.076 19.8998C13.7319 21.5627 15.7375 22.8358 17.947 23.6266C19.067 24.08 19.507 23.24 20.107 22.08L20.4937 21.3466L26.667 22.76V23.2C26.6635 24.1183 26.2971 24.998 25.6477 25.6474C24.9984 26.2967 24.1187 26.6631 23.2003 26.6666Z" fill="white"/>
</svg>
