<svg width="28" height="22" viewBox="0 0 28 22" fill="none" xmlns="http://www.w3.org/2000/svg">
<path d="M28 10.9125C28 10.8437 28 10.7656 27.9969 10.675C27.9938 10.4219 27.9875 10.1375 27.9813 9.83436C27.9563 8.96249 27.9125 8.09374 27.8438 7.27499C27.75 6.14686 27.6125 5.20624 27.425 4.49999C27.2271 3.76295 26.8393 3.09076 26.3002 2.5506C25.7612 2.01044 25.0898 1.62123 24.3531 1.42186C23.4688 1.18436 21.7375 1.03749 19.3 0.946863C18.1406 0.903113 16.9 0.874988 15.6594 0.859363C15.225 0.853113 14.8219 0.849988 14.4594 0.846863H13.5406C13.1781 0.849988 12.775 0.853113 12.3406 0.859363C11.1 0.874988 9.85938 0.903113 8.7 0.946863C6.2625 1.04061 4.52812 1.18749 3.64687 1.42186C2.91 1.62074 2.23834 2.00979 1.6992 2.55002C1.16006 3.09026 0.772375 3.76271 0.575 4.49999C0.384375 5.20624 0.25 6.14686 0.15625 7.27499C0.0875 8.09374 0.04375 8.96249 0.01875 9.83436C0.00937495 10.1375 0.00624995 10.4219 0.00312495 10.675C0.00312495 10.7656 0 10.8437 0 10.9125V11.0875C0 11.1562 -4.77303e-08 11.2344 0.00312495 11.325C0.00624995 11.5781 0.0125 11.8625 0.01875 12.1656C0.04375 13.0375 0.0875 13.9062 0.15625 14.725C0.25 15.8531 0.3875 16.7937 0.575 17.5C0.975 18.9969 2.15 20.1781 3.64687 20.5781C4.52812 20.8156 6.2625 20.9625 8.7 21.0531C9.85938 21.0969 11.1 21.125 12.3406 21.1406C12.775 21.1469 13.1781 21.15 13.5406 21.1531H14.4594C14.8219 21.15 15.225 21.1469 15.6594 21.1406C16.9 21.125 18.1406 21.0969 19.3 21.0531C21.7375 20.9594 23.4719 20.8125 24.3531 20.5781C25.85 20.1781 27.025 19 27.425 17.5C27.6156 16.7937 27.75 15.8531 27.8438 14.725C27.9125 13.9062 27.9563 13.0375 27.9813 12.1656C27.9906 11.8625 27.9938 11.5781 27.9969 11.325C27.9969 11.2344 28 11.1562 28 11.0875V10.9125ZM25.75 11.075C25.75 11.1406 25.75 11.2125 25.7469 11.2969C25.7438 11.5406 25.7375 11.8094 25.7313 12.1C25.7094 12.9312 25.6656 13.7625 25.6 14.5344C25.5156 15.5406 25.3969 16.3656 25.25 16.9187C25.0562 17.6406 24.4875 18.2125 23.7687 18.4031C23.1125 18.5781 21.4594 18.7187 19.2125 18.8031C18.075 18.8469 16.85 18.875 15.6281 18.8906C15.2 18.8969 14.8031 18.9 14.4469 18.9H13.5531L12.3719 18.8906C11.15 18.875 9.92813 18.8469 8.7875 18.8031C6.54063 18.7156 4.88437 18.5781 4.23125 18.4031C3.5125 18.2094 2.94375 17.6406 2.75 16.9187C2.60313 16.3656 2.48438 15.5406 2.4 14.5344C2.33438 13.7625 2.29375 12.9312 2.26875 12.1C2.25938 11.8094 2.25625 11.5375 2.25313 11.2969C2.25313 11.2125 2.25 11.1375 2.25 11.075V10.925C2.25 10.8594 2.25 10.7875 2.25313 10.7031C2.25625 10.4594 2.2625 10.1906 2.26875 9.89999C2.29063 9.06874 2.33438 8.23749 2.4 7.46561C2.48438 6.45936 2.60313 5.63436 2.75 5.08124C2.94375 4.35936 3.5125 3.78749 4.23125 3.59686C4.8875 3.42186 6.54063 3.28124 8.7875 3.19686C9.925 3.15311 11.15 3.12499 12.3719 3.10936C12.8 3.10311 13.1969 3.09999 13.5531 3.09999H14.4469L15.6281 3.10936C16.85 3.12499 18.0719 3.15311 19.2125 3.19686C21.4594 3.28436 23.1156 3.42186 23.7687 3.59686C24.4875 3.79061 25.0562 4.35936 25.25 5.08124C25.3969 5.63436 25.5156 6.45936 25.6 7.46561C25.6656 8.23749 25.7063 9.06874 25.7313 9.89999C25.7406 10.1906 25.7438 10.4625 25.7469 10.7031C25.7469 10.7875 25.75 10.8625 25.75 10.925V11.075ZM11.2188 15.1875L18.4688 10.9687L11.2188 6.81249V15.1875Z" fill="white"/>
</svg>
